<?xml version="1.0" encoding="UTF-8" standalone="no"?>
<!-- Generator: Gravit.io -->
<svg xmlns="http://www.w3.org/2000/svg" xmlns:xlink="http://www.w3.org/1999/xlink" style="isolation:isolate" viewBox="0 0 128 128" width="128pt" height="128pt"><defs><clipPath id="_clipPath_swdVAckD6gXy36Qxq2QelsoB1AA19cdw"><rect width="128" height="128"/></clipPath></defs><g clip-path="url(#_clipPath_swdVAckD6gXy36Qxq2QelsoB1AA19cdw)"><path d=" M 128 64 C 128 72.831 120.831 80 112 80 C 103.169 80 96 72.831 96 64 C 96 55.169 103.169 48 112 48 C 120.831 48 128 55.169 128 64 Z " fill="rgb(255,146,221)"/><path d=" M 32 64 C 32 72.831 24.831 80 16 80 C 7.169 80 0 72.831 0 64 C 0 55.169 7.169 48 16 48 C 24.831 48 32 55.169 32 64 Z " fill="rgb(255,146,221)"/><line x1="26.75" y1="64" x2="64" y2="77" vector-effect="non-scaling-stroke" stroke-width="5" stroke="rgb(0,0,0)" stroke-linejoin="miter" stroke-linecap="round" stroke-miterlimit="3"/><line x1="64" y1="77" x2="101.25" y2="64" vector-effect="non-scaling-stroke" stroke-width="5" stroke="rgb(0,0,0)" stroke-linejoin="miter" stroke-linecap="round" stroke-miterlimit="3"/></g></svg>